<svg width="129" height="127" viewBox="0 0 129 127" fill="none" xmlns="http://www.w3.org/2000/svg">
<path d="M129 0H0V129H129V0Z" fill="white"/>
<path d="M64.5 123.873C97.2908 123.873 123.873 97.2908 123.873 64.5C123.873 31.7091 97.2908 5.12692 64.5 5.12692C31.7092 5.12692 5.12695 31.7091 5.12695 64.5C5.12695 97.2908 31.7092 123.873 64.5 123.873Z" fill="url(#paint0_linear)" stroke="black" stroke-width="4.16129"/>
<path d="M50.9758 66.0605C51.3226 66.2339 51.9121 66.3726 51.496 65.5403L50.9758 66.0605ZM50.9758 66.0605V65.5403" stroke="black" stroke-width="1.04032"/>
<path d="M27.372 55.1412L35.3104 69.695" stroke="black" stroke-width="4.16129"/>
<path d="M45.895 63.7411C46.9976 62.3078 49.7319 59.6396 51.8488 60.4334C53.5027 60.1027 57.6704 61.1611 61.1104 68.0412L58.4642 80.9412C57.0309 81.1616 54.2966 82.2643 54.8258 84.9104C55.355 87.5565 57.4719 87.9977 58.4642 87.8874L59.4566 86.5643C60.1182 87.1155 61.7058 88.3505 62.7643 88.8797C63.8227 89.4089 65.19 89.1001 65.7411 88.8797C66.7335 88.3284 68.7842 87.0935 69.0489 86.5643C69.3135 86.0351 70.4822 87.2258 71.0335 87.8874C73.3489 87.8874 74.7153 85.0408 74.3412 83.918C73.6796 81.9335 73.6796 81.2719 70.7028 80.9412L67.3951 68.0412C68.7181 65.5052 72.0259 60.4334 74.672 60.4334C77.9797 60.4334 79.9642 60.1027 83.2719 63.7411" stroke="black" stroke-width="4.16129"/>
<path d="M51.8488 65.0642H52.1797V65.3949H51.8488" stroke="black" stroke-width="4.16129"/>
<path d="M48.2103 65.0642C49.313 63.6309 52.4443 61.6241 56.1488 65.0642" stroke="black" stroke-width="4.16129"/>
<path d="M72.6873 65.3098C73.7899 63.8766 76.9213 61.8699 80.6258 65.3098" stroke="black" stroke-width="4.16129"/>
<path d="M64.4181 111.703V107.733" stroke="black" stroke-width="4.16129"/>
<path d="M100.141 46.2104V55.1412M100.141 46.2104C92.2028 22.6597 72.7976 17.4335 64.7488 18.095C43.8442 15.4489 31.5616 35.9565 27.372 46.2104V55.1412C22.6089 55.1412 29.7976 72.3413 33.9873 80.9412H37.295L37.9566 93.8412C46.6888 108.924 56.8105 112.033 60.7797 111.703H71.0335C76.3258 112.761 87.3514 100.236 92.2028 93.8412V80.9412H94.5182C98.1566 79.9489 102.457 61.4258 102.787 57.1259C103.118 52.8258 100.141 55.8027 100.141 55.1412V46.2104ZM100.141 46.2104C100.141 48.9668 100.141 54.612 100.141 55.1412V46.2104Z" stroke="black" stroke-width="4.16129"/>
<path d="M48.2103 21.072C49.754 24.2694 56.3473 30.2012 65.0797 29.6719C73.8118 29.1427 79.3027 24.0488 80.295 21.7334" stroke="black" stroke-width="4.16129"/>
<path d="M44.9026 23.0565L35.3104 42.9027V69.695L37.295 80.6105V81.2719" stroke="black" stroke-width="4.16129"/>
<path d="M84.9257 24.7104L94.1873 44.2259V71.0182L92.2028 80.6105V82.595" stroke="black" stroke-width="4.16129"/>
<path d="M52.1797 65.7258H52.0143C51.7403 65.7258 51.5181 65.5036 51.5181 65.2297C51.5181 64.9557 51.7403 64.7335 52.0143 64.7335H52.1797C52.3624 64.7335 52.5104 64.8817 52.5104 65.0642V65.3951C52.5104 65.5778 52.3624 65.7258 52.1797 65.7258Z" stroke="black" stroke-width="4.16129"/>
<path d="M76.3258 65.0642H76.6567V65.3949H76.3258" stroke="black" stroke-width="4.16129"/>
<path d="M76.6566 65.7258H76.4912C76.2172 65.7258 75.995 65.5036 75.995 65.2297C75.995 64.9557 76.2172 64.7335 76.4912 64.7335H76.6566C76.8393 64.7335 76.9874 64.8817 76.9874 65.0642V65.3951C76.9874 65.5778 76.8393 65.7258 76.6566 65.7258Z" stroke="black" stroke-width="4.16129"/>
<path d="M100.141 55.1412L94.1872 69.695" stroke="black" stroke-width="4.16129"/>
<path d="M67.3951 68.0411L69.0489 61.0949L78.6411 59.4411L86.9103 62.7488" stroke="black" stroke-width="4.16129"/>
<path d="M61.1103 68.0411L59.4566 61.0949L49.8643 59.4411L41.5951 62.7488" stroke="black" stroke-width="4.16129"/>
<path d="M59.4566 96.4873H66.7335" stroke="black" stroke-width="4.16129"/>
<path d="M63.0951 96.818H63.4258H70.0412H70.372L66.4028 96.4873" stroke="black" stroke-width="4.16129"/>
<path d="M57.5538 97.2462C57.9949 96.8052 59.2078 95.9231 60.5308 95.9231H61.1923C61.7436 95.9231 63.0446 96.1877 63.8384 97.2462" stroke="black" stroke-width="4.16129"/>
<path d="M58.795 96.818H63.095L61.4412 96.1564L59.4566 96.4873" stroke="black" stroke-width="4.16129"/>
<path d="M64.5 97.2462C64.941 96.8052 66.1538 95.9231 67.477 95.9231H68.1384C68.6898 95.9231 69.9907 96.1877 70.7846 97.2462" stroke="black" stroke-width="4.16129"/>
<path d="M65.7411 96.818H70.0412L68.3874 96.1564L66.4028 96.4873" stroke="black" stroke-width="4.16129"/>
<path d="M64.0873 89.2104V93.5105" stroke="black" stroke-width="4.16129"/>
<path d="M48.5411 97.1488C49.2027 96.7078 50.7904 95.8918 51.8488 96.1564C52.9072 96.4211 53.3924 96.9284 53.5027 97.1488H64.0874" stroke="black" stroke-width="4.16129"/>
<path d="M79.3027 97.149C78.6553 96.8693 77.1013 96.3524 76.0653 96.5201C75.0294 96.6878 74.5545 97.0092 74.4467 97.149H64.0873" stroke="black" stroke-width="4.16129"/>
<path d="M56.1489 97.1489C56.5899 98.1413 58.1336 100.456 59.4566 100.456C60.7797 100.456 63.3157 100.456 64.4181 100.456" stroke="black" stroke-width="4.16129"/>
<path d="M71.695 97.1489C71.254 98.1413 69.7105 100.456 68.3874 100.456C67.0642 100.456 64.5284 100.456 63.4258 100.456" stroke="black" stroke-width="4.16129"/>
<path d="M61.4411 100.456V101.78" stroke="black" stroke-width="4.16129"/>
<path d="M67.3951 100.456V101.78" stroke="black" stroke-width="4.16129"/>
<path d="M52.0161 66.0605L51.496 67.1008L53.0565 65.0202" stroke="black" stroke-width="1.04032"/>
<path d="M75.4234 66.0605L75.9435 65.5403M75.9435 65.5403V66.5807L76.9838 66.0605L75.9435 65.5403Z" stroke="black" stroke-width="1.04032"/>
<defs>
<linearGradient id="paint0_linear" x1="64.5" y1="5.12692" x2="64.5" y2="123.873" gradientUnits="userSpaceOnUse">
<stop stop-color="#FFC843"/>
<stop offset="0.989583" stop-color="#FFB709"/>
</linearGradient>
</defs>
</svg>
