<svg width="58" height="58" viewBox="0 0 58 58" fill="none" xmlns="http://www.w3.org/2000/svg">
<circle cx="29" cy="29" r="26.5" stroke="white" stroke-width="5"/>
<path d="M30.0394 14.248C32.6285 14.248 34.8696 14.6795 36.7627 15.5425C38.6837 16.4056 40.1592 17.6305 41.1893 19.2174C42.2194 20.8043 42.7344 22.6835 42.7344 24.855C42.7344 26.9987 42.2194 28.8779 41.1893 30.4926C40.1592 32.0795 38.6837 33.3045 36.7627 34.1675C34.8696 35.0027 32.6285 35.4203 30.0394 35.4203H24.1512V43.48H17.3861V14.248H30.0394ZM29.6635 29.908C31.6958 29.908 33.241 29.4765 34.2989 28.6134C35.3568 27.7225 35.8858 26.4697 35.8858 24.855C35.8858 23.2125 35.3568 21.9597 34.2989 21.0966C33.241 20.2057 31.6958 19.7603 29.6635 19.7603H24.1512V29.908H29.6635Z" fill="white"/>
</svg>
