<svg width="200" height="200" viewBox="0 0 200 200" fill="none" xmlns="http://www.w3.org/2000/svg">
<circle cx="100" cy="100" r="95" stroke="black" stroke-width="10"/>
<path d="M103.584 51.2C112.512 51.2 120.24 52.688 126.768 55.664C133.392 58.64 138.48 62.864 142.032 68.336C145.584 73.808 147.36 80.288 147.36 87.776C147.36 95.168 145.584 101.648 142.032 107.216C138.48 112.688 133.392 116.912 126.768 119.888C120.24 122.768 112.512 124.208 103.584 124.208H83.28V152H59.952V51.2H103.584ZM102.288 105.2C109.296 105.2 114.624 103.712 118.272 100.736C121.92 97.664 123.744 93.344 123.744 87.776C123.744 82.112 121.92 77.792 118.272 74.816C114.624 71.744 109.296 70.208 102.288 70.208H83.28V105.2H102.288Z" fill="black"/>
</svg>
