<svg width="195" height="195" viewBox="0 0 195 195" fill="none" xmlns="http://www.w3.org/2000/svg">
<rect width="195" height="195" fill="white"/>
<circle cx="97.5" cy="97.5" r="89.75" stroke="black" stroke-width="3.5"/>
<path d="M41.3762 83.353L53.3762 105.353" stroke="black" stroke-width="3.5"/>
<path d="M69.3762 96.353C71.0429 94.1863 75.1762 90.153 78.3762 91.353C80.8762 90.853 87.1762 92.453 92.3762 102.853L88.3762 122.353C86.2096 122.686 82.0762 124.353 82.8762 128.353C83.6762 132.353 86.8762 133.02 88.3762 132.853L89.8762 130.853C90.8762 131.686 93.2762 133.553 94.8762 134.353C96.4762 135.153 98.5429 134.686 99.3762 134.353C100.876 133.52 103.976 131.653 104.376 130.853C104.776 130.053 106.543 131.853 107.376 132.853C110.876 132.853 112.942 128.55 112.376 126.853C111.376 123.853 111.376 122.853 106.876 122.353L101.876 102.853C103.876 99.0196 108.876 91.353 112.876 91.353C117.876 91.353 120.876 90.8529 125.876 96.353" stroke="black" stroke-width="3.5"/>
<path d="M78.3762 98.3529H78.8762V98.8529H78.3762" stroke="black" stroke-width="3.5"/>
<path d="M72.8762 98.3528C74.5429 96.1862 79.2762 93.1528 84.8762 98.3528" stroke="black" stroke-width="3.5"/>
<path d="M109.876 98.7242C111.543 96.5575 116.276 93.5242 121.876 98.7242" stroke="black" stroke-width="3.5"/>
<path d="M97.3762 168.853V162.853" stroke="black" stroke-width="3.5"/>
<path d="M62.8762 132.353L69.3762 157.853" stroke="black" stroke-width="3.5"/>
<path d="M131.376 132.853L124.876 158.353" stroke="black" stroke-width="3.5"/>
<path d="M151.376 69.8529C139.376 34.253 110.043 26.3529 97.8762 27.3529C66.2762 23.3529 47.7096 54.3529 41.3762 69.8529V83.353C34.1762 83.353 45.0429 109.353 51.3762 122.353H56.3762L57.3762 141.853C70.5762 164.653 85.8762 169.353 91.8762 168.853H107.376C115.376 170.453 132.043 151.52 139.376 141.853V122.353H142.876C148.376 120.853 154.876 92.853 155.376 86.353C155.876 79.853 151.376 84.353 151.376 83.353M151.376 69.8529C151.376 74.0196 151.376 82.553 151.376 83.353M151.376 69.8529V83.353" stroke="black" stroke-width="3.5"/>
<path d="M72.8762 31.8529C75.2095 36.6862 85.1762 45.6529 98.3762 44.8529C111.576 44.0529 119.876 36.3529 121.376 32.8529" stroke="black" stroke-width="3.5"/>
<path d="M67.8762 34.8529L53.3762 64.8529V105.353L56.3762 121.853V122.853" stroke="black" stroke-width="3.5"/>
<path d="M128.376 37.353L142.376 66.853V107.353L139.376 121.853V124.853" stroke="black" stroke-width="3.5"/>
<path d="M78.8762 99.353H78.6262C78.212 99.353 77.8762 99.0172 77.8762 98.603C77.8762 98.1888 78.212 97.853 78.6262 97.853H78.8762C79.1524 97.853 79.3762 98.0769 79.3762 98.353V98.853C79.3762 99.1291 79.1524 99.353 78.8762 99.353Z" stroke="black" stroke-width="3.5"/>
<path d="M115.376 98.3529H115.876V98.8529H115.376" stroke="black" stroke-width="3.5"/>
<path d="M115.876 99.353H115.626C115.212 99.353 114.876 99.0172 114.876 98.603C114.876 98.1888 115.212 97.853 115.626 97.853H115.876C116.152 97.853 116.376 98.0769 116.376 98.353V98.853C116.376 99.1291 116.152 99.353 115.876 99.353Z" stroke="black" stroke-width="3.5"/>
<path d="M151.376 83.353L142.376 105.353" stroke="black" stroke-width="3.5"/>
<path d="M101.876 102.853L104.376 92.3528L118.876 89.8528L131.376 94.8528" stroke="black" stroke-width="3.5"/>
<path d="M92.3762 102.853L89.8762 92.3528L75.3762 89.8528L62.8762 94.8528" stroke="black" stroke-width="3.5"/>
<path d="M89.8762 145.853H100.876" stroke="black" stroke-width="3.5"/>
<path d="M95.3762 146.353H95.8762H105.876H106.376L100.376 145.853" stroke="black" stroke-width="3.5"/>
<path d="M87 147C87.6667 146.333 89.5 145 91.5 145H92.5C93.3333 145 95.3 145.4 96.5 147" stroke="black" stroke-width="3.5"/>
<path d="M88.8762 146.353H95.3762L92.8762 145.353L89.8762 145.853" stroke="black" stroke-width="3.5"/>
<path d="M97.5 147C98.1667 146.333 100 145 102 145H103C103.833 145 105.8 145.4 107 147" stroke="black" stroke-width="3.5"/>
<path d="M99.3762 146.353H105.876L103.376 145.353L100.376 145.853" stroke="black" stroke-width="3.5"/>
<path d="M96.8762 134.853V141.353" stroke="black" stroke-width="3.5"/>
<path d="M73.3762 146.853C74.3762 146.186 76.7762 144.953 78.3762 145.353C79.9762 145.753 80.7095 146.519 80.8762 146.853H96.8762" stroke="black" stroke-width="3.5"/>
<path d="M119.876 146.853C118.897 146.43 116.549 145.649 114.983 145.902C113.417 146.156 112.699 146.642 112.536 146.853H96.8762" stroke="black" stroke-width="3.5"/>
<path d="M84.8762 146.853C85.5429 148.353 87.8762 151.853 89.8762 151.853C91.8762 151.853 95.7096 151.853 97.3762 151.853" stroke="black" stroke-width="3.5"/>
<path d="M108.376 146.853C107.71 148.353 105.376 151.853 103.376 151.853C101.376 151.853 97.5429 151.853 95.8762 151.853" stroke="black" stroke-width="3.5"/>
<path d="M92.8762 151.853V153.853" stroke="black" stroke-width="3.5"/>
<path d="M101.876 151.853V153.853" stroke="black" stroke-width="3.5"/>
</svg>
